<svg xmlns="http://www.w3.org/2000/svg" version="1.1" xmlns:xlink="http://www.w3.org/1999/xlink" xmlns:svgjs="http://svgjs.dev/svgjs" viewBox="0 0 1920 1080"><rect width="1920" height="1080" fill="#39ac80"></rect><g transform="matrix(7.04171909509728e-17,1.15,-1.15,7.04171909509728e-17,1530.97705078125,-506.47360839843736)"><path d="M0,-1080C-15.266078490359234,-1016.7114994909224,-78.87003677319137,-856.8323834190646,-91.5964709421554,-700.2689969455341C-104.32290511111944,-543.7056104720036,-105.21039433864503,-290.8999105923574,-76.3586050137842,-140.6196811588173C-47.50681568892337,9.660548274722856,70.13418792782637,66.48214712720292,81.51426500700956,201.41237965570662C92.89434208619274,336.34261218421034,2.361852011384448,492.69584229272266,-8.078142538685086,668.961714012205C-18.51813708875462,845.2275857316873,4.455543940432477,1090.4770876945288,18.87429770659236,1259.0076099726004C33.29305147275224,1427.538132250672,81.58009634270626,1529.9794493427355,78.4343800582742,1680.1448476806354C75.28866377384215,1830.3102460185353,13.072396676379034,2080.024141280106,0,2160L 1920 2160 L 1920 -1080 Z" fill="url(&quot;#SvgjsLinearGradient1324&quot;)"></path><path d="M320,-1080C302.0976449725578,-1006.8546430590567,233.38849886117058,-791.7542850351332,212.58586983534684,-641.1278583543399C191.7832408095231,-490.50143167354656,173.02372120601112,-285.6103362003626,195.1842258450576,-176.24143991523988C217.34473048410408,-66.87254363011716,305.6332244771331,-125.46576810519687,345.5488976696258,15.085519356396446C385.4645708621184,155.63680681798976,438.15744053411913,498.1775755380362,434.67826500001337,667.0662848543201C431.1990894659076,835.954994170604,348.59480994430714,920.2322746180613,324.6738444649913,1028.4177752540995C300.75287898567547,1136.6032758901379,286.82691007227027,1189.3473147590487,291.15247212411845,1316.1792886705496C295.4780341759666,1443.0112625820504,345.8192954634336,1648.7728335015297,350.62721677608056,1789.4096187231048C355.4351380887275,1930.04640394468,325.10453612934674,2098.234936453851,320,2160L 1920 2160 L 1920 -1080 Z" fill="url(&quot;#SvgjsLinearGradient1325&quot;)"></path><path d="M640,-1080C635.0817706043816,-981.0876441447978,624.0809555493761,-708.0356039103401,610.4906236262896,-486.5258648687865C596.900291703203,-265.0161258272329,543.5320418378313,34.79500309187986,558.4580084614807,249.05843424932186C573.3839750851301,463.3218654067639,698.540397755098,593.8991507434679,700.0464233681859,799.0547220758654C701.5524489812738,1004.2102934082628,577.501899368039,1253.1676492563508,567.494162140008,1479.9918622437067C557.4864249119771,1706.8160752310625,627.9156936900014,2046.6653103739511,640,2160L 1920 2160 L 1920 -1080 Z" fill="url(&quot;#SvgjsLinearGradient1326&quot;)"></path><path d="M960,-1080C955.3746549687035,-1007.1847857429271,941.3834161945811,-799.2153447163738,932.2479298122207,-643.1087144575631C923.1124434298604,-487.0020841987524,921.3715066049095,-300.16835908548046,905.1870817058376,-143.36021844713565C889.0026568067657,13.447922191209187,835.5150330766262,142.3604464398902,835.1413804177894,297.74012937250586C834.7677277589526,453.1198123051215,892.5456559033488,625.303315051972,902.945165752817,788.9178791485583C913.3446756022853,952.5324432451446,899.0791264373851,1119.165936464785,897.5384395145991,1279.4275139520237C895.9977525918131,1439.6890914392623,883.2907841352007,1603.7252630639937,893.7010442161009,1750.4873440719898C904.111304297001,1897.249425079986,948.9501740360168,2091.747890678665,960,2160L 1920 2160 L 1920 -1080 Z" fill="url(&quot;#SvgjsLinearGradient1327&quot;)"></path><path d="M1280,-1080C1291.834140491762,-1019.606275668602,1343.5870601669324,-851.3008692141135,1351.004842950572,-717.6376540116121C1358.4226257342118,-583.9744388091107,1356.3334080550474,-451.02847422611785,1324.5066967018379,-278.02070878499126C1292.6799853486284,-105.01294334386469,1157.911005539678,155.1947638301389,1160.0445748313152,320.4089386351472C1162.1781441229525,485.6231134401555,1306.837757070312,561.6653985602444,1337.3081124516611,713.2643400450585C1367.7784678330104,864.8632815298726,1352.3494695666836,1075.7950273610707,1342.8667071194109,1230.0025875440315C1333.383944672138,1384.2101477269923,1290.8893222879258,1483.5101324001614,1280.411537768024,1638.509701142823C1269.933753248122,1793.5092698854844,1280.068589628004,2073.0849501904704,1280,2160L 1920 2160 L 1920 -1080 Z" fill="url(&quot;#SvgjsLinearGradient1328&quot;)"></path><path d="M1600,-1080C1584.3302407626486,-1028.4423218546758,1505.6205068257045,-907.9705962359853,1505.9814445758914,-770.6539311280555C1506.3423823260782,-633.3372660201258,1604.0472837902403,-428.27743553435687,1602.1656265011213,-256.1000093524209C1600.2839692120024,-83.92258317048493,1502.5570175964601,118.85973011570277,1494.6915008411784,262.4106259635602C1486.8259840858966,405.9615218114177,1522.274730425613,475.3025256213425,1554.9725259694303,605.2053657347237C1587.6703215132477,735.108205848105,1662.704857746604,933.5638482317378,1690.878274104083,1041.8276666438476C1719.051690461562,1150.0914850559575,1750.6632234279639,1148.4331065188067,1724.0130241143047,1254.7882762073828C1697.3628248006455,1361.1434458959588,1551.6459155745122,1529.0900641432006,1530.977078222128,1679.9586847753035C1510.308240869744,1830.8273054074064,1588.496179703688,2079.9931141292172,1600,2160L 1920 2160 L 1920 -1080 Z" fill="url(&quot;#SvgjsLinearGradient1329&quot;)"></path></g><defs><linearGradient x1="0.1" y1="0" x2="0" y2="1" id="SvgjsLinearGradient1324"><stop stop-color="#39ac80" offset="0"></stop><stop stop-color="#39ac6d" offset="0"></stop></linearGradient><linearGradient x1="0.1" y1="0" x2="0" y2="1" id="SvgjsLinearGradient1325"><stop stop-color="#4bc395" offset="0"></stop><stop stop-color="#4bc381" offset="0.16666666666666666"></stop></linearGradient><linearGradient x1="0.1" y1="0" x2="0" y2="1" id="SvgjsLinearGradient1326"><stop stop-color="#69cda7" offset="0"></stop><stop stop-color="#69cd96" offset="0.3333333333333333"></stop></linearGradient><linearGradient x1="0.1" y1="0" x2="0" y2="1" id="SvgjsLinearGradient1327"><stop stop-color="#88d8b9" offset="0"></stop><stop stop-color="#88d8ac" offset="0.5"></stop></linearGradient><linearGradient x1="0.1" y1="0" x2="0" y2="1" id="SvgjsLinearGradient1328"><stop stop-color="#a7e2cb" offset="0"></stop><stop stop-color="#a7e2c1" offset="0.6666666666666666"></stop></linearGradient><linearGradient x1="0.1" y1="0" x2="0" y2="1" id="SvgjsLinearGradient1329"><stop stop-color="#c5ecdd" offset="0"></stop><stop stop-color="#c5ecd6" offset="0.8333333333333334"></stop></linearGradient></defs></svg>